<svg width="65" height="65" viewBox="0 0 65 65" fill="none" xmlns="http://www.w3.org/2000/svg">
<circle cx="32.5" cy="32.5" r="32.5" fill="white"/>
<g clip-path="url(#clip0_1_240)">
<path d="M47.3522 42.4496L46.6906 39.9806C46.6045 39.6591 46.274 39.4681 45.9527 39.5545C45.6312 39.6407 45.4405 39.971 45.5266 40.2924L45.8163 41.3734L41.5885 38.9617V28.9385C41.5885 28.7229 41.4732 28.5236 41.2863 28.4162L32.5507 23.3938V18.6211L33.3297 19.4001C33.565 19.6354 33.9465 19.6354 34.1818 19.4001C34.4171 19.1648 34.4171 18.7833 34.1818 18.5479L32.3742 16.7404C32.1387 16.5039 31.753 16.5086 31.5221 16.7404L29.7145 18.5479C29.4792 18.7832 29.4792 19.1647 29.7145 19.4001C29.9498 19.6353 30.3313 19.6353 30.5667 19.4001L31.3457 18.6211V23.3949L22.6687 28.417C22.4826 28.5247 22.368 28.7235 22.368 28.9385V38.8643L18.0807 41.3006L18.3708 40.2177C18.4569 39.8962 18.2662 39.5659 17.9447 39.4798C17.6232 39.3935 17.2929 39.5843 17.2068 39.9058L16.5453 42.3755C16.4615 42.6882 16.6488 43.0363 16.9894 43.1182L19.4405 43.775C19.7645 43.8618 20.093 43.6678 20.1785 43.349C20.2646 43.0276 20.0739 42.6972 19.7524 42.6111L18.7069 42.3309L22.9619 39.913L31.6804 45.0469C31.867 45.1568 32.0988 45.1582 32.2871 45.0496L34.4973 43.7755C34.7856 43.6093 34.8845 43.2409 34.7184 42.9526C34.5522 42.6644 34.1837 42.5654 33.8954 42.7316L31.9894 43.8304L24.1706 39.2262L31.9102 34.8282L39.799 39.3282L38.5921 40.024C38.3038 40.1902 38.2049 40.5586 38.371 40.8469C38.5373 41.1352 38.9058 41.2342 39.194 41.0679L41.0118 40.02L45.1922 42.4047L44.1452 42.6852C43.8238 42.7713 43.633 43.1017 43.7192 43.4231C43.8049 43.743 44.1342 43.9358 44.4571 43.8492L46.8719 43.2022C47.2167 43.1413 47.4447 42.7948 47.3522 42.4496ZM40.3834 38.2742L32.5506 33.8061V24.7838L40.3834 29.2871V38.2742ZM23.573 29.286L31.3456 24.7873V33.7628L23.573 38.1796V29.286Z" fill="#DC7000"/>
<path d="M36.5273 42.4724C36.8601 42.4724 37.1299 42.2026 37.1299 41.8699C37.1299 41.5371 36.8601 41.2673 36.5273 41.2673C36.1946 41.2673 35.9248 41.5371 35.9248 41.8699C35.9248 42.2026 36.1946 42.4724 36.5273 42.4724Z" fill="#DC7000"/>
</g>
<defs>
<clipPath id="clip0_1_240">
<rect width="30.8475" height="30.8475" fill="white" transform="translate(16.5254 15.4237)"/>
</clipPath>
</defs>
</svg>
