<svg width="65" height="65" viewBox="0 0 65 65" fill="none" xmlns="http://www.w3.org/2000/svg">
<circle cx="32.5" cy="32.5" r="32.5" fill="white"/>
<g clip-path="url(#clip0_1_222)">
<path d="M45.7203 18.1779H20.3813C18.2528 18.1803 16.5278 19.9053 16.5254 22.0338V44.0677C16.5278 46.1963 18.2528 47.9213 20.3813 47.9237H45.7203C47.8489 47.9213 49.5738 46.1963 49.5762 44.0677V22.0338C49.5738 19.9053 47.8489 18.1803 45.7203 18.1779ZM48.4745 44.0677C48.4727 45.5881 47.2407 46.8202 45.7203 46.822H20.3813C18.861 46.8202 17.6289 45.5881 17.6271 44.0677V22.0338C17.6289 20.5135 18.861 19.2814 20.3813 19.2796H45.7203C47.2407 19.2814 48.4727 20.5135 48.4745 22.0338V44.0677Z" fill="#DC7000"/>
<path d="M45.7203 22.5847H20.3813C19.4686 22.5847 18.7288 23.3246 18.7288 24.2372V44.0677C18.7288 44.9804 19.4686 45.7203 20.3813 45.7203H45.7203C46.633 45.7203 47.3728 44.9804 47.3728 44.0677V24.2372C47.3728 23.3246 46.633 22.5847 45.7203 22.5847ZM33.0508 33.5267L27.0515 30.2966L33.0508 27.0664L39.0501 30.2966L33.0508 33.5267ZM39.661 31.2187V37.6779L33.6016 40.9422V34.483L39.661 31.2187ZM32.4999 34.483V40.9422L26.4406 37.6779V31.2187L32.4999 34.483ZM19.8305 24.2372C19.8305 23.933 20.0771 23.6864 20.3813 23.6864H32.4999V26.1101L25.6287 29.8118C25.6215 29.8157 25.6133 29.8173 25.6061 29.8217C25.4395 29.9218 25.338 30.1022 25.3389 30.2966V34.9138L19.8305 37.668V24.2372ZM46.2711 44.0677C46.2711 44.372 46.0245 44.6186 45.7203 44.6186H20.3813C20.0771 44.6186 19.8305 44.372 19.8305 44.0677V38.8997L25.3389 36.1454V38.0084C25.339 38.211 25.4503 38.3971 25.6287 38.4932L32.7897 42.3491C32.9527 42.4368 33.1489 42.4368 33.3119 42.3491L40.4729 38.4932C40.6513 38.3971 40.7626 38.211 40.7627 38.0084V36.1454L46.2711 38.8997V44.0677ZM46.2711 37.668L40.7627 34.9138V30.2966C40.7626 30.1028 40.6607 29.9233 40.4944 29.8239C40.4872 29.8195 40.479 29.8179 40.4718 29.814L33.6016 26.1101V23.6864H45.7203C46.0245 23.6864 46.2711 23.933 46.2711 24.2372V37.668Z" fill="#DC7000"/>
<path d="M19.8304 21.483C20.1346 21.483 20.3812 21.2364 20.3812 20.9322C20.3812 20.628 20.1346 20.3813 19.8304 20.3813C19.5262 20.3813 19.2795 20.628 19.2795 20.9322C19.2795 21.2364 19.5262 21.483 19.8304 21.483Z" fill="#DC7000"/>
<path d="M22.0338 21.483C22.338 21.483 22.5846 21.2364 22.5846 20.9322C22.5846 20.628 22.338 20.3813 22.0338 20.3813C21.7295 20.3813 21.4829 20.628 21.4829 20.9322C21.4829 21.2364 21.7295 21.483 22.0338 21.483Z" fill="#DC7000"/>
<path d="M24.2371 21.483C24.5413 21.483 24.788 21.2364 24.788 20.9322C24.788 20.628 24.5413 20.3813 24.2371 20.3813C23.9329 20.3813 23.6863 20.628 23.6863 20.9322C23.6863 21.2364 23.9329 21.483 24.2371 21.483Z" fill="#DC7000"/>
<path d="M38.0084 21.483H45.7202C46.0245 21.483 46.2711 21.2364 46.2711 20.9322C46.2711 20.628 46.0245 20.3813 45.7202 20.3813H38.0084C37.7041 20.3813 37.4575 20.628 37.4575 20.9322C37.4575 21.2364 37.7041 21.483 38.0084 21.483Z" fill="#DC7000"/>
</g>
<defs>
<clipPath id="clip0_1_222">
<rect width="33.0508" height="33.0508" fill="white" transform="translate(16.5254 16.5254)"/>
</clipPath>
</defs>
</svg>
