<svg id="Layer_1" data-name="Layer 1" xmlns="http://www.w3.org/2000/svg" viewBox="0 0 128 128"><title>GAME</title><path d="M122.562,102.345,107.757,54.288a18.807,18.807,0,0,0-18-13.408,19.784,19.784,0,0,0-4.192.464L68.75,45.168V35.359A1.75,1.75,0,0,0,67,33.609H65.75v-7.49A22.213,22.213,0,0,1,68.407,15.6l4.466-8.271a1.75,1.75,0,0,0-3.08-1.662L65.327,13.94A25.725,25.725,0,0,0,62.25,26.119v7.49H61a1.75,1.75,0,0,0-1.75,1.75v9.809L42.436,41.343a19.009,19.009,0,0,0-4.176-.463A18.809,18.809,0,0,0,20.247,54.274L5.435,102.357a16.233,16.233,0,0,0,27.829,15.277c.032-.037.063-.075.092-.115L49.617,95.166A4.249,4.249,0,0,1,53.05,93.42h21.9a4.25,4.25,0,0,1,3.435,1.749l16.26,22.351c.029.04.06.078.092.115a16.235,16.235,0,0,0,27.826-15.29Zm-6.55,13.678A12.729,12.729,0,0,1,97.43,115.4L81.217,93.113A7.755,7.755,0,0,0,74.95,89.92H53.05a7.754,7.754,0,0,0-6.265,3.19L30.57,115.4A12.734,12.734,0,0,1,8.783,103.376L23.6,55.292A15.307,15.307,0,0,1,38.26,44.38a15.483,15.483,0,0,1,3.4.376l17.548,3.992c.335.075.672.117,1.009.169a1.73,1.73,0,0,0,.782.192h6a1.732,1.732,0,0,0,.783-.193c.339-.052.677-.095,1.016-.171l17.537-3.989a14.934,14.934,0,0,1,3.3-.377,15.306,15.306,0,0,1,14.772,10.926l14.807,48.058A12.717,12.717,0,0,1,116.013,116.022Z"/><path d="M86.066,89.581a1.75,1.75,0,1,0-2.83,2.059l11.886,16.337a1.75,1.75,0,1,0,2.83-2.059Z"/><path d="M76.323,81.563h-6a1.75,1.75,0,0,0,0,3.5h6a1.75,1.75,0,0,0,0-3.5Z"/><path d="M57.677,81.563h-6a1.75,1.75,0,0,0,0,3.5h6a1.75,1.75,0,0,0,0-3.5Z"/><path d="M53.739,69.738V61.512a1.75,1.75,0,0,0-1.75-1.75H46.052V53.824a1.75,1.75,0,0,0-1.75-1.75H36.075a1.75,1.75,0,0,0-1.75,1.75v5.938H28.388a1.75,1.75,0,0,0-1.75,1.75v8.227a1.75,1.75,0,0,0,1.75,1.75h5.937v5.938a1.75,1.75,0,0,0,1.75,1.75H44.3a1.75,1.75,0,0,0,1.75-1.75V71.488h5.938A1.75,1.75,0,0,0,53.739,69.738Zm-3.5-1.75H44.3a1.75,1.75,0,0,0-1.75,1.75v5.938H37.825V69.738a1.75,1.75,0,0,0-1.75-1.75H30.138V63.262h5.937a1.75,1.75,0,0,0,1.75-1.75V55.574h4.727v5.938a1.75,1.75,0,0,0,1.75,1.75h5.938Z"/><path d="M95.5,59.762a5.829,5.829,0,0,0-2.291.467,5.863,5.863,0,1,0-10.794,0,5.863,5.863,0,1,0,0,10.793,5.863,5.863,0,1,0,10.794,0A5.863,5.863,0,1,0,95.5,59.762ZM80.124,67.988a2.363,2.363,0,1,1,2.363-2.363A2.366,2.366,0,0,1,80.124,67.988Zm7.688,7.688a2.363,2.363,0,1,1,2.363-2.363A2.366,2.366,0,0,1,87.812,75.676ZM85.521,63.334a5.857,5.857,0,0,0,4.581,0,5.858,5.858,0,0,0,0,4.582,5.857,5.857,0,0,0-4.581,0,5.858,5.858,0,0,0,0-4.582ZM87.812,60.3a2.363,2.363,0,1,1,2.363-2.363A2.366,2.366,0,0,1,87.812,60.3ZM95.5,67.988a2.363,2.363,0,1,1,2.363-2.363A2.366,2.366,0,0,1,95.5,67.988Z"/></svg>