<svg width="55" height="56" viewBox="0 0 55 56" fill="none" xmlns="http://www.w3.org/2000/svg">
<rect y="0.5" width="55" height="55" rx="27.5" fill="#FFECEC"/>
<path fill-rule="evenodd" clip-rule="evenodd" d="M27.5 26.8001C28.4548 26.8001 29.3705 26.4208 30.0456 25.7457C30.7207 25.0706 31.1 24.1549 31.1 23.2001C31.1 22.2453 30.7207 21.3296 30.0456 20.6545C29.3705 19.9794 28.4548 19.6001 27.5 19.6001C26.5452 19.6001 25.6296 19.9794 24.9544 20.6545C24.2793 21.3296 23.9 22.2453 23.9 23.2001C23.9 24.1549 24.2793 25.0706 24.9544 25.7457C25.6296 26.4208 26.5452 26.8001 27.5 26.8001ZM22.3987 37.6001C20.5769 37.6001 19.0422 36.0687 19.7394 34.3856C20.1616 33.3664 20.7803 32.4404 21.5603 31.6604C22.3403 30.8804 23.2663 30.2616 24.2855 29.8395C25.3046 29.4174 26.3969 29.2001 27.5 29.2001C28.6031 29.2001 29.6954 29.4174 30.7145 29.8395C31.7337 30.2616 32.6597 30.8804 33.4397 31.6604C34.2197 32.4404 34.8385 33.3664 35.2606 34.3856C35.9578 36.0687 34.4232 37.6001 32.6014 37.6001H22.3987Z" fill="#DC7000"/>
</svg>
